# AST/ASF file generated using VICON BodyLanguage
# -----------------------------------------------
:version 1.10
:name VICON
:units
  mass 1.0
  length 0.45
  angle deg
:documentation
   .ast/.asf automatically generated from VICON data using
   VICON BodyBuilder and BodyLanguage model FoxedUp or BRILLIANT.MOD
:root
   order TX TY TZ RX RY RZ
   axis XYZ
   position 0 0 0  
   orientation 0 0 0 
:bonedata
  begin
     id 1 
     name lhipjoint
     direction 0.547975 -0.797114 0.253638 
     length 2.36201 
     axis 0 0 0  XYZ
  end
  begin
     id 2 
     name lfemur
     direction 0.34202 -0.939693 0  
     length 7.69075  
     axis 0 0 20  XYZ
    dof rx ry rz
    limits (-160.0 20.0)
           (-70.0 70.0)
           (-60.0 70.0)
  end
  begin
     id 3 
     name ltibia
     direction 0.34202 -0.939693 0   
     length 7.91399   
     axis 0 0 20   XYZ
    dof rx
    limits (-10.0 170.0)
  end
  begin
     id 4 
     name lfoot
     direction 0.0705293 -0.193778 0.978507   
     length 2.13618   
     axis -90 7.62852e-016 20   XYZ
    dof rx rz
    limits (-45.0 90.0)
           (-70.0 20.0)
  end
  begin
     id 5 
     name ltoes
     direction 1.53592e-011 -4.21925e-011 1   
     length 1.07518   
     axis -90 7.62852e-016 20   XYZ
    dof rx
    limits (-90.0 20.0)
  end
  begin
     id 6 
     name rhipjoint
     direction -0.57 -0.782963 0.249136   
     length 2.4047  
     axis 0 0 0  XYZ 
  end
  begin
     id 7 
     name rfemur
     direction -0.34202 -0.939693 0   
     length 7.51486   
     axis 0 0 -20   XYZ
    dof rx ry rz
    limits (-160.0 20.0)
           (-70.0 70.0)
           (-70.0 60.0)
  end
  begin
     id 8 
     name rtibia
     direction -0.34202 -0.939693 0   
     length 8.08317   
     axis 0 0 -20   XYZ
    dof rx
    limits (-10.0 170.0)
 end
 begin
     id 9 
     name rfoot
     direction -0.104954 -0.281256 0.953876   
     length 2.30343  
     axis -90 -7.62852e-016 -20   XYZ
    dof rx rz
    limits (-45.0 90.0)
           (-20.0 70.0)
  end
  begin
     id 10 
     name rtoes
     direction -1.53556e-011 -4.21922e-011 1   
     length 1.14803   
     axis -90 -7.62852e-016 -20   XYZ
    dof rx
    limits (-90.0 20.0)
  end
  begin
     id 11 
     name lowerback
     direction -0.0152855 0.99353 -0.11254   
     length 2.05311   
     axis 0 0 0   XYZ
    dof rx ry rz
    limits (-20.0 45.0)
           (-30.0 30.0)
           (-30.0 30.0)
  end
  begin
     id 12 
     name upperback
     direction -0.00157509 0.999443 -0.033332   
     length 2.06353   
     axis 0 0 0   XYZ
    dof rx ry rz
    limits (-20.0 45.0)
           (-30.0 30.0)
           (-30.0 30.0)
  end
  begin
     id 13 
     name thorax
     direction 0.00577788 0.999804 0.0189484   
     length 2.08472   
     axis 0 0 0   XYZ
    dof rx ry rz
    limits (-20.0 45.0)
           (-30.0 30.0)
           (-30.0 30.0)
  end
  begin
     id 14 
     name lowerneck
     direction -1.09301e-005 0.994719 0.10264   
     length 1.76249   
     axis 0 0 0   XYZ
    dof rx ry rz
    limits (-20.0 45.0)
           (-30.0 30.0)
           (-30.0 30.0)
  end
  begin
     id 15 
     name upperneck
     direction 0.0495018 0.988526 -0.142706   
     length 1.77897   
     axis 0 0 0   XYZ
    dof rx ry rz
    limits (-20.0 45.0)
           (-30.0 30.0)
           (-30.0 30.0)
  end
  begin
     id 16
     name head
     direction 0.0142736 0.998114 -0.0597101  
     length 1.78934  
     axis 0 0 0   XYZ
    dof rx ry rz
    limits (-20.0 45.0)
           (-30.0 30.0)
           (-30.0 30.0)
  end
  begin
     id 17 
     name lclavicle
     direction 0.918111 0.396107 -0.0130883  
     length 3.37276  
     axis 0 0 0   XYZ
    dof ry rz
    limits (-20.0 10.0)
           (0.0 20.0)
  end
  begin
     id 18 
     name lhumerus
     direction 1 -4.48975e-011 -3.26108e-027   
     length 5.34298   
     axis 180 -30 -90   XYZ
    dof rx ry rz
    limits (-60.0 90.0)
           (-90.0 90.0)
           (-90.0 90.0)
  end
  begin
     id 19
     name lradius
     direction 1 -4.48964e-011 -8.84413e-028   
     length 3.67262   
     axis 180 -30 -90   XYZ
    dof rx
    limits (-10.0 170.0)
  end
  begin
     id 20
     name lwrist
     direction 1 -4.48991e-011 -1.24264e-027   
     length 1.83631   
     axis -2.17013e-015 90 90   XYZ
    dof ry
    limits (-180.0 0.0)
 end
  begin
     id 21 
     name lhand
     direction 1 -4.48855e-011 -2.48528e-027   
     length 0.599298   
     axis 1.58582e-015 90 90   XYZ
    dof rx rz
    limits (-90.0 90.0)
           (-45.0 45.0)
  end
  begin
     id 22 
     name lfingers
     direction 1 -4.48811e-011 -4.97056e-027   
     length 0.48317   
     axis 3.17164e-015 90 90   XYZ
    dof rx
    limits (0.0 90.0)
  end
  begin
     id 23
     name lthumb
     direction 0.707107 -6.34882e-011 0.707107   
     length 0.693738   
     axis -90 45 2.85299e-015   XYZ
    dof rx rz
    limits (-45.0 45.0)
           (-45.0 45.0)
  end
  begin
     id 24 
     name rclavicle
     direction -0.920511 0.384752 -0.0680135   
     length 3.43787  
     axis 0 0 0   XYZ 
    dof ry rz
    limits (-10.0 20.0)
           (-20.0 0.0)
  end
  begin
     id 25 
     name rhumerus
     direction -0.999976 -0.00330524 0.00603274  
     length 5.5498   
     axis 180 30 90   XYZ
    dof rx ry rz
    limits (-90.0 60.0)
           (-90.0 90.0)
           (-90.0 90.0)
  end
  begin
     id 26 
     name rradius
     direction -1 -4.48967e-011 8.62438e-027   
     length 3.69401   
     axis 180 30 90   XYZ
    dof rx
    limits (-10.0 170.0)
  end
  begin
     id 27 
     name rwrist
     direction -1 -4.4897e-011 9.54866e-027   
     length 1.84701   
     axis -7.69462e-015 -90 -90   XYZ
    dof ry
    limits (-180.0 0.0)
  end
  begin
     id 28
     name rhand
     direction -1 -4.48982e-011 1.90973e-026   
     length 0.638113   
     axis -1.21857e-014 -90 -90   XYZ
    dof rx rz
    limits (-90.0 90.0)
           (-45.0 45.0)
  end
  begin
     id 29
     name rfingers
     direction -1 -4.48936e-011 3.81946e-026   
     length 0.514463   
     axis -2.43714e-014 -90 -90   XYZ
    dof rx
    limits (0.0 90.0)
  end
  begin
     id 30
     name rthumb
     direction -0.707107 -6.34942e-011 0.707107   
     length 0.738669   
     axis -90 -45 -2.85299e-015   XYZ
    dof rx rz
    limits (-45.0 45.0)
           (-45.0 45.0)
  end
:hierarchy
  begin
    root lhipjoint rhipjoint lowerback
    lhipjoint lfemur
    lfemur ltibia
    ltibia lfoot
    lfoot ltoes
    rhipjoint rfemur
    rfemur rtibia
    rtibia rfoot
    rfoot rtoes
    lowerback upperback
    upperback thorax
    thorax lowerneck lclavicle rclavicle
    lowerneck upperneck
    upperneck head
    lclavicle lhumerus
    lhumerus lradius
    lradius lwrist
    lwrist lhand lthumb
    lhand lfingers
    rclavicle rhumerus
    rhumerus rradius
    rradius rwrist
    rwrist rhand rthumb
    rhand rfingers
  end

#!OML:ASF F:\twosubjects\two\Thursday\Session 1\Rory.ASF
:FULLY-SPECIFIED
:DEGREES
81
root 7.36288 10.6272 11.702 168.15 -5.70078 177.783
lowerback 40.8047 5.20522 0.875734
upperback 16.5585 0.278128 -0.163512
thorax -1.1531 -2.45459 -0.661713
lowerneck -8.84843 -2.71957 -5.53804
upperneck -12.5151 -4.02782 5.69904
head -2.28308 -2.42444 2.80581
rclavicle -3.23025e-015 1.98785e-016
rhumerus 25.4012 29.092 -66.107
rradius 69.1635
rwrist 1.38763
rhand -42.6917 29.5095
rfingers 7.12502
rthumb -15.5614 0.115572
lclavicle -3.23025e-015 1.98785e-016
lhumerus 25.8201 -31.025 67.9696
lradius 67.1362
lwrist -24.3714
lhand -12.8724 18.048
lfingers 7.12502
lthumb 13.2162 47.609
rfemur -70.8222 -24.5086 0.635819
rtibia 114.906
rfoot -21.3349 -3.8917
rtoes -8.70437
lfemur -65.0982 23.3219 -0.0735169
ltibia 107.959
lfoot -23.2137 -13.6038
ltoes -24.3635
82
root 7.35762 10.6501 11.6836 168.59 -5.62712 177.661
lowerback 40.9373 5.27091 0.868579
upperback 16.5803 0.329533 -0.20278
thorax -1.16615 -2.4328 -0.716453
lowerneck -9.29191 -2.99808 -5.65042
upperneck -12.4559 -4.38096 5.98815
head -2.15864 -2.61031 2.90458
rclavicle 1.06226e-014 -7.23079e-015
rhumerus 25.5755 29.0071 -65.8283
rradius 69.5676
rwrist 1.60651
rhand -41.755 27.6837
rfingers 7.12502
rthumb -14.6592 -1.77815
lclavicle 1.06226e-014 -7.23079e-015
lhumerus 26.2878 -31.3384 67.3347
lradius 67.3778
lwrist -24.5329
lhand -13.0273 18.6918
lfingers 7.12502
lthumb 13.0669 48.2625
rfemur -71.2693 -24.6468 0.842923
rtibia 114.883
rfoot -21.3186 -4.53896
rtoes -11.3592
lfemur -65.354 23.3401 -0.373895
ltibia 107.921
lfoot -23.3275 -13.2785
ltoes -24.1971
83
root 7.34643 10.6783 11.6638 168.922 -5.59867 177.92
lowerback 41.2329 5.08111 1.28137
upperback 16.3989 0.299311 -0.229332
thorax -1.43904 -2.40109 -0.933689
lowerneck -8.85927 -3.15327 -5.55194
upperneck -12.7251 -4.61273 5.97278
head -2.31076 -2.73641 2.89638
rclavicle -2.59787e-014 6.92019e-015
rhumerus 26.1205 29.2894 -65.1716
rradius 69.1263
rwrist 1.69055
rhand -40.9806 26.3123
rfingers 7.12502
rthumb -13.9129 -3.20222
lclavicle -2.59787e-014 6.92019e-015
lhumerus 26.144 -31.5244 67.2314
lradius 67.69
lwrist -23.8725
lhand -12.6232 18.5683
lfingers 7.12502
lthumb 13.4564 48.1136
rfemur -71.3258 -24.5507 1.21859
rtibia 114.751
rfoot -21.4488 -4.94687
rtoes -12.8249
lfemur -65.5297 23.1766 -0.2071
ltibia 107.904
lfoot -23.3777 -13.18
ltoes -24.3546
84
root 7.3315 10.6904 11.6344 169.233 -5.5609 178.249
lowerback 41.4828 4.79238 1.70818
upperback 16.2213 0.148323 -0.290637
thorax -1.69681 -2.42862 -1.15293
lowerneck -8.1388 -3.16864 -5.38293
upperneck -13.2803 -4.69326 5.84089
head -2.62506 -2.79804 2.85893
rclavicle -3.3048e-015 1.98785e-016
rhumerus 26.5992 29.6726 -64.5949
rradius 68.8998
rwrist 1.96671
rhand -40.1584 25.6908
rfingers 7.12502
rthumb -13.1205 -3.87643
lclavicle -3.3048e-015 1.98785e-016
lhumerus 25.6857 -31.403 67.3645
lradius 68.0871
lwrist -23.1563
lhand -11.8823 18.5658
lfingers 7.12502
lthumb 14.1704 48.0625
rfemur -71.3932 -24.3743 1.53246
rtibia 114.662
rfoot -21.6002 -4.94185
rtoes -11.9164
lfemur -65.7455 23.1289 0.141278
ltibia 107.995
lfoot -23.4348 -13.4696
ltoes -24.3911
85
root 7.32118 10.6984 11.6039 169.916 -5.47311 178.283
lowerback 41.4215 4.67299 1.78794
upperback 16.1878 0.0492952 -0.397266
thorax -1.71742 -2.45135 -1.27115
lowerneck -8.74427 -3.33602 -5.46403
upperneck -13.1301 -4.89827 6.1314
head -2.44882 -2.91244 2.94627
rclavicle 1.85367e-014 -2.45002e-014
rhumerus 27.1845 29.6237 -64.1488
rradius 69.0799
rwrist 2.14053
rhand -39.247 25.8853
rfingers 7.12502
rthumb -12.2419 -3.73645
lclavicle 1.85367e-014 -2.45002e-014
lhumerus 25.6414 -31.235 67.3401
lradius 68.4651
lwrist -22.7401
lhand -11.7928 19.3151
lfingers 7.12502
lthumb 14.2566 48.8058
rfemur -72.0841 -24.3206 1.75378
rtibia 114.626
rfoot -21.623 -4.6948
rtoes -9.42342
lfemur -66.3498 23.1888 0.0362154
ltibia 108.059
lfoot -23.3503 -13.8468
ltoes -22.8286
